<?xml version="1.0" encoding="UTF-8"?>
<svg xmlns="http://www.w3.org/2000/svg" xmlns:xlink="http://www.w3.org/1999/xlink" width="16pt" height="14pt" viewBox="0 2 20 16" version="1.1">
<g id="surface1">
  <path style=" stroke:none;fill-rule:nonzero;fill:#8089A6;fill-opacity:1;" d="M 19.4375 2.105469 C 19.0625 1.726562 18.609375 1.539062 18.082031 1.539062 L 1.921875 1.539062 C 1.394531 1.539062 0.941406 1.726562 0.566406 2.105469 C 0.1875 2.480469 0 2.933594 0 3.460938 L 0 16.542969 C 0 17.070312 0.1875 17.523438 0.566406 17.898438 C 0.941406 18.277344 1.394531 18.464844 1.921875 18.464844 L 18.082031 18.464844 C 18.609375 18.464844 19.0625 18.277344 19.4375 17.898438 C 19.816406 17.523438 20.003906 17.070312 20.003906 16.542969 L 20.003906 3.460938 C 20.003906 2.933594 19.816406 2.480469 19.4375 2.105469 Z M 6.15625 16.542969 C 6.15625 16.652344 6.117188 16.746094 6.046875 16.816406 C 5.976562 16.890625 5.882812 16.925781 5.769531 16.925781 L 1.921875 16.925781 C 1.8125 16.925781 1.71875 16.890625 1.648438 16.816406 C 1.574219 16.746094 1.539062 16.652344 1.539062 16.542969 L 1.539062 14.234375 C 1.539062 14.121094 1.574219 14.027344 1.648438 13.957031 C 1.71875 13.882812 1.8125 13.847656 1.921875 13.847656 L 5.769531 13.847656 C 5.882812 13.847656 5.976562 13.882812 6.046875 13.957031 C 6.117188 14.027344 6.15625 14.121094 6.15625 14.234375 Z M 6.15625 11.925781 C 6.15625 12.039062 6.117188 12.128906 6.046875 12.203125 C 5.976562 12.273438 5.882812 12.308594 5.769531 12.308594 L 1.921875 12.308594 C 1.8125 12.308594 1.71875 12.273438 1.648438 12.203125 C 1.574219 12.128906 1.539062 12.039062 1.539062 11.925781 L 1.539062 9.617188 C 1.539062 9.503906 1.574219 9.414062 1.648438 9.339844 C 1.71875 9.269531 1.8125 9.230469 1.921875 9.230469 L 5.769531 9.230469 C 5.882812 9.230469 5.976562 9.269531 6.046875 9.339844 C 6.117188 9.414062 6.15625 9.503906 6.15625 9.617188 Z M 6.15625 7.308594 C 6.15625 7.421875 6.117188 7.511719 6.046875 7.585938 C 5.976562 7.65625 5.882812 7.695312 5.769531 7.695312 L 1.921875 7.695312 C 1.8125 7.695312 1.71875 7.65625 1.648438 7.585938 C 1.574219 7.511719 1.539062 7.421875 1.539062 7.308594 L 1.539062 5 C 1.539062 4.886719 1.574219 4.796875 1.648438 4.722656 C 1.71875 4.652344 1.8125 4.617188 1.921875 4.617188 L 5.769531 4.617188 C 5.882812 4.617188 5.976562 4.652344 6.046875 4.722656 C 6.117188 4.796875 6.15625 4.886719 6.15625 5 Z M 12.308594 16.542969 C 12.308594 16.652344 12.273438 16.746094 12.203125 16.816406 C 12.128906 16.890625 12.039062 16.925781 11.925781 16.925781 L 8.078125 16.925781 C 7.964844 16.925781 7.875 16.890625 7.800781 16.816406 C 7.730469 16.746094 7.695312 16.652344 7.695312 16.542969 L 7.695312 14.234375 C 7.695312 14.121094 7.730469 14.027344 7.800781 13.957031 C 7.875 13.882812 7.964844 13.847656 8.078125 13.847656 L 11.925781 13.847656 C 12.039062 13.847656 12.128906 13.882812 12.203125 13.957031 C 12.273438 14.027344 12.308594 14.121094 12.308594 14.234375 Z M 12.308594 11.925781 C 12.308594 12.039062 12.273438 12.128906 12.203125 12.203125 C 12.128906 12.273438 12.039062 12.308594 11.925781 12.308594 L 8.078125 12.308594 C 7.964844 12.308594 7.875 12.273438 7.800781 12.203125 C 7.730469 12.128906 7.695312 12.039062 7.695312 11.925781 L 7.695312 9.617188 C 7.695312 9.503906 7.730469 9.414062 7.800781 9.339844 C 7.875 9.269531 7.964844 9.230469 8.078125 9.230469 L 11.925781 9.230469 C 12.039062 9.230469 12.128906 9.269531 12.203125 9.339844 C 12.273438 9.414062 12.308594 9.503906 12.308594 9.617188 Z M 12.308594 7.308594 C 12.308594 7.421875 12.273438 7.511719 12.203125 7.585938 C 12.128906 7.65625 12.039062 7.695312 11.925781 7.695312 L 8.078125 7.695312 C 7.964844 7.695312 7.875 7.65625 7.800781 7.585938 C 7.730469 7.511719 7.695312 7.421875 7.695312 7.308594 L 7.695312 5 C 7.695312 4.886719 7.730469 4.796875 7.800781 4.722656 C 7.875 4.652344 7.964844 4.617188 8.078125 4.617188 L 11.925781 4.617188 C 12.039062 4.617188 12.128906 4.652344 12.203125 4.722656 C 12.273438 4.796875 12.308594 4.886719 12.308594 5 Z M 18.464844 16.542969 C 18.464844 16.652344 18.429688 16.746094 18.355469 16.816406 C 18.285156 16.890625 18.191406 16.925781 18.082031 16.925781 L 14.234375 16.925781 C 14.121094 16.925781 14.027344 16.890625 13.957031 16.816406 C 13.886719 16.746094 13.847656 16.652344 13.847656 16.542969 L 13.847656 14.234375 C 13.847656 14.121094 13.886719 14.027344 13.957031 13.957031 C 14.027344 13.882812 14.121094 13.847656 14.234375 13.847656 L 18.082031 13.847656 C 18.191406 13.847656 18.285156 13.882812 18.355469 13.957031 C 18.429688 14.027344 18.464844 14.121094 18.464844 14.234375 Z M 18.464844 11.925781 C 18.464844 12.039062 18.429688 12.128906 18.355469 12.203125 C 18.285156 12.273438 18.191406 12.308594 18.082031 12.308594 L 14.234375 12.308594 C 14.121094 12.308594 14.027344 12.273438 13.957031 12.203125 C 13.886719 12.128906 13.847656 12.039062 13.847656 11.925781 L 13.847656 9.617188 C 13.847656 9.503906 13.886719 9.414062 13.957031 9.339844 C 14.027344 9.269531 14.121094 9.230469 14.234375 9.230469 L 18.082031 9.230469 C 18.191406 9.230469 18.285156 9.269531 18.355469 9.339844 C 18.429688 9.414062 18.464844 9.503906 18.464844 9.617188 Z M 18.464844 7.308594 C 18.464844 7.421875 18.429688 7.511719 18.355469 7.585938 C 18.285156 7.65625 18.191406 7.695312 18.082031 7.695312 L 14.234375 7.695312 C 14.121094 7.695312 14.027344 7.65625 13.957031 7.585938 C 13.886719 7.511719 13.847656 7.421875 13.847656 7.308594 L 13.847656 5 C 13.847656 4.886719 13.886719 4.796875 13.957031 4.722656 C 14.027344 4.652344 14.121094 4.617188 14.234375 4.617188 L 18.082031 4.617188 C 18.191406 4.617188 18.285156 4.652344 18.355469 4.722656 C 18.429688 4.796875 18.464844 4.886719 18.464844 5 Z M 18.464844 7.308594 "/>
</g>
</svg>
