<?xml version="1.0" encoding="UTF-8"?>
<svg xmlns="http://www.w3.org/2000/svg" xmlns:xlink="http://www.w3.org/1999/xlink" width="20pt" height="20pt" viewBox="0 0 20 20" version="1.1">
<g id="surface1">
<path style=" stroke:none;fill-rule:nonzero;fill:white;fill-opacity:1;" d="M 18.082031 11.328125 L 17.0625 10.3125 C 16.660156 9.910156 15.957031 9.910156 15.554688 10.3125 L 10.058594 15.808594 L 9.300781 18.585938 L 9.117188 18.773438 C 8.976562 18.910156 8.976562 19.132812 9.113281 19.273438 L 9.113281 19.28125 L 9.117188 19.28125 C 9.1875 19.347656 9.277344 19.382812 9.367188 19.382812 C 9.460938 19.382812 9.550781 19.347656 9.621094 19.277344 L 9.804688 19.09375 L 12.585938 18.335938 L 18.082031 12.835938 C 18.496094 12.421875 18.496094 11.746094 18.082031 11.328125 Z M 10.882812 15.996094 L 14.542969 12.335938 L 16.058594 13.851562 L 12.398438 17.507812 Z M 10.5625 16.683594 L 11.710938 17.832031 L 10.128906 18.261719 Z M 17.574219 12.332031 L 16.5625 13.347656 L 15.046875 11.832031 L 16.058594 10.816406 C 16.195312 10.683594 16.425781 10.683594 16.558594 10.816406 L 17.574219 11.835938 C 17.710938 11.972656 17.710938 12.195312 17.574219 12.332031 Z M 17.574219 12.332031 "/>
<path style=" stroke:none;fill-rule:nonzero;fill:white;fill-opacity:1;" d="M 13.75 3.929688 L 13.75 0 L 1.609375 0 L 1.609375 3.929688 Z M 13.75 3.929688 "/>
<path style=" stroke:none;fill-rule:nonzero;fill:white;fill-opacity:1;" d="M 13.75 10.453125 L 13.75 4.644531 L 1.609375 4.644531 L 1.609375 19.445312 C 1.609375 19.75 1.855469 20 2.164062 20 C 2.3125 20 2.449219 19.941406 2.554688 19.839844 L 7.679688 14.644531 L 8.914062 15.894531 L 9.136719 15.066406 Z M 13.75 10.453125 "/>
</g>
</svg>
