<?xml version="1.0" encoding="UTF-8"?>
<svg xmlns="http://www.w3.org/2000/svg" xmlns:xlink="http://www.w3.org/1999/xlink" width="20pt" height="20pt" viewBox="0 0 20 20" version="1.1">
<g id="surface1">
<path style=" stroke:none;fill-rule:nonzero;fill:#8089A6;fill-opacity:1;" d="M 3.238281 12.152344 C 3.371094 12.242188 3.523438 12.285156 3.671875 12.285156 C 3.921875 12.285156 4.171875 12.164062 4.320312 11.9375 C 5.582031 10.050781 7.695312 8.925781 9.964844 8.925781 C 12.230469 8.925781 14.339844 10.046875 15.601562 11.925781 C 15.84375 12.28125 16.328125 12.378906 16.6875 12.136719 C 17.042969 11.894531 17.140625 11.410156 16.898438 11.050781 C 15.890625 9.550781 14.441406 8.445312 12.789062 7.851562 C 13.78125 7.042969 14.414062 5.8125 14.414062 4.433594 C 14.414062 2 12.433594 0.0195312 10 0.0195312 C 7.566406 0.0195312 5.585938 2 5.585938 4.433594 C 5.585938 5.800781 6.210938 7.023438 7.191406 7.835938 C 5.511719 8.425781 4.042969 9.546875 3.023438 11.070312 C 2.78125 11.429688 2.878906 11.914062 3.238281 12.152344 Z M 10 1.582031 C 11.574219 1.582031 12.851562 2.859375 12.851562 4.433594 C 12.851562 6.007812 11.574219 7.285156 10 7.285156 C 8.425781 7.285156 7.148438 6.007812 7.148438 4.433594 C 7.148438 2.859375 8.425781 1.582031 10 1.582031 Z M 13.117188 13.851562 L 11.949219 14.691406 C 11.777344 14.816406 11.703125 15.039062 11.769531 15.242188 L 12.242188 16.601562 C 12.261719 16.660156 12.269531 16.722656 12.265625 16.777344 C 12.25 17.140625 11.789062 17.390625 11.457031 17.148438 L 10.289062 16.308594 C 10.203125 16.246094 10.101562 16.214844 10 16.214844 C 9.898438 16.214844 9.796875 16.246094 9.710938 16.308594 L 8.542969 17.148438 C 8.210938 17.390625 7.75 17.140625 7.734375 16.777344 C 7.734375 16.722656 7.742188 16.660156 7.761719 16.601562 L 8.230469 15.242188 C 8.296875 15.039062 8.222656 14.816406 8.050781 14.691406 L 6.882812 13.851562 C 6.496094 13.574219 6.695312 12.910156 7.175781 12.910156 L 8.613281 12.910156 C 8.828125 12.910156 9.019531 12.828125 9.085938 12.625 L 9.53125 11.257812 C 9.605469 11.03125 9.800781 10.917969 10 10.917969 C 10.199219 10.917969 10.394531 11.03125 10.46875 11.257812 L 10.914062 12.625 C 10.980469 12.828125 11.171875 12.910156 11.386719 12.910156 L 12.824219 12.910156 C 13.304688 12.910156 13.503906 13.574219 13.117188 13.851562 Z M 19.796875 16.585938 L 18.628906 17.425781 C 18.457031 17.550781 18.382812 17.773438 18.449219 17.976562 L 18.921875 19.335938 C 18.941406 19.394531 18.949219 19.457031 18.945312 19.511719 C 18.929688 19.875 18.46875 20.125 18.136719 19.882812 L 16.96875 19.042969 C 16.882812 18.980469 16.78125 18.949219 16.679688 18.949219 C 16.578125 18.949219 16.476562 18.980469 16.390625 19.042969 L 15.222656 19.882812 C 14.890625 20.125 14.429688 19.875 14.414062 19.511719 C 14.414062 19.457031 14.421875 19.394531 14.441406 19.335938 L 14.910156 17.976562 C 14.976562 17.773438 14.902344 17.550781 14.730469 17.425781 L 13.5625 16.585938 C 13.175781 16.308594 13.375 15.644531 13.855469 15.644531 L 15.292969 15.644531 C 15.507812 15.644531 15.699219 15.5625 15.765625 15.359375 L 16.210938 13.992188 C 16.285156 13.765625 16.480469 13.652344 16.679688 13.652344 C 16.878906 13.652344 17.074219 13.765625 17.148438 13.992188 L 17.59375 15.359375 C 17.660156 15.5625 17.851562 15.644531 18.066406 15.644531 L 19.503906 15.644531 C 19.984375 15.644531 20.183594 16.308594 19.796875 16.585938 Z M 6.4375 16.585938 L 5.269531 17.425781 C 5.097656 17.550781 5.023438 17.773438 5.089844 17.976562 L 5.5625 19.335938 C 5.582031 19.394531 5.589844 19.457031 5.585938 19.511719 C 5.570312 19.875 5.109375 20.125 4.777344 19.882812 L 3.609375 19.042969 C 3.523438 18.980469 3.421875 18.949219 3.320312 18.949219 C 3.21875 18.949219 3.117188 18.980469 3.03125 19.042969 L 1.863281 19.882812 C 1.53125 20.125 1.070312 19.875 1.054688 19.511719 C 1.054688 19.457031 1.0625 19.394531 1.082031 19.335938 L 1.550781 17.976562 C 1.617188 17.773438 1.542969 17.550781 1.371094 17.425781 L 0.203125 16.585938 C -0.183594 16.308594 0.015625 15.644531 0.496094 15.644531 L 1.933594 15.644531 C 2.148438 15.644531 2.339844 15.5625 2.40625 15.359375 L 2.851562 13.992188 C 2.925781 13.765625 3.121094 13.652344 3.320312 13.652344 C 3.519531 13.652344 3.714844 13.765625 3.789062 13.992188 L 4.234375 15.359375 C 4.300781 15.5625 4.492188 15.644531 4.707031 15.644531 L 6.144531 15.644531 C 6.625 15.644531 6.824219 16.308594 6.4375 16.585938 Z M 6.4375 16.585938 "/>
</g>
</svg>
