<?xml version="1.0" encoding="UTF-8"?>
<svg xmlns="http://www.w3.org/2000/svg" xmlns:xlink="http://www.w3.org/1999/xlink" width="20pt" height="20pt" viewBox="0 0 20 20" version="1.1">
<g id="surface1">
<path style=" stroke:none;fill-rule:nonzero;fill:white;fill-opacity:1;" d="M 3.515625 11.210938 C 2.546875 11.210938 1.757812 12 1.757812 12.96875 C 1.757812 13.9375 2.546875 14.726562 3.515625 14.726562 C 4.484375 14.726562 5.273438 13.9375 5.273438 12.96875 C 5.273438 12 4.484375 11.210938 3.515625 11.210938 Z M 3.515625 11.210938 "/>
<path style=" stroke:none;fill-rule:nonzero;fill:white;fill-opacity:1;" d="M 4.6875 14.726562 L 2.34375 14.726562 C 1.050781 14.726562 0 15.777344 0 17.070312 L 0 19.414062 C 0 19.738281 0.261719 20 0.585938 20 L 6.445312 20 C 6.769531 20 7.03125 19.738281 7.03125 19.414062 L 7.03125 17.070312 C 7.03125 15.777344 5.980469 14.726562 4.6875 14.726562 Z M 4.6875 14.726562 "/>
<path style=" stroke:none;fill-rule:nonzero;fill:white;fill-opacity:1;" d="M 16.484375 11.210938 C 15.515625 11.210938 14.726562 12 14.726562 12.96875 C 14.726562 13.9375 15.515625 14.726562 16.484375 14.726562 C 17.453125 14.726562 18.242188 13.9375 18.242188 12.96875 C 18.242188 12 17.453125 11.210938 16.484375 11.210938 Z M 16.484375 11.210938 "/>
<path style=" stroke:none;fill-rule:nonzero;fill:white;fill-opacity:1;" d="M 17.65625 14.726562 L 15.3125 14.726562 C 14.019531 14.726562 12.96875 15.777344 12.96875 17.070312 L 12.96875 19.414062 C 12.96875 19.738281 13.230469 20 13.554688 20 L 19.414062 20 C 19.738281 20 20 19.738281 20 19.414062 L 20 17.070312 C 20 15.777344 18.949219 14.726562 17.65625 14.726562 Z M 17.65625 14.726562 "/>
<path style=" stroke:none;fill-rule:nonzero;fill:white;fill-opacity:1;" d="M 10 0 L 5.3125 0 C 3.695312 0 2.382812 1.3125 2.382812 2.929688 L 2.382812 6.445312 C 2.382812 7.859375 3.390625 9.042969 4.726562 9.316406 L 4.726562 11.132812 C 4.726562 11.65625 5.359375 11.917969 5.726562 11.546875 L 7.898438 9.375 L 10 9.375 C 11.617188 9.375 12.929688 8.0625 12.929688 6.445312 L 12.929688 2.929688 C 12.929688 1.3125 11.617188 0 10 0 Z M 9.828125 3.34375 L 7.484375 5.6875 C 7.253906 5.917969 6.886719 5.917969 6.65625 5.6875 L 5.484375 4.515625 C 5.253906 4.285156 5.253906 3.917969 5.484375 3.6875 C 5.714844 3.457031 6.082031 3.457031 6.3125 3.6875 L 7.070312 4.445312 L 9 2.515625 C 9.230469 2.285156 9.597656 2.285156 9.828125 2.515625 C 10.058594 2.746094 10.058594 3.113281 9.828125 3.34375 Z M 9.828125 3.34375 "/>
<path style=" stroke:none;fill-rule:nonzero;fill:white;fill-opacity:1;" d="M 14.6875 1.171875 L 13.691406 1.171875 C 13.945312 1.707031 14.101562 2.296875 14.101562 2.929688 L 14.101562 6.445312 C 14.101562 7.789062 13.445312 8.96875 12.445312 9.71875 L 14.273438 11.546875 C 14.640625 11.917969 15.273438 11.65625 15.273438 11.132812 L 15.273438 9.316406 C 16.609375 9.042969 17.617188 7.859375 17.617188 6.445312 L 17.617188 4.101562 C 17.617188 2.484375 16.304688 1.171875 14.6875 1.171875 Z M 14.6875 1.171875 "/>
</g>
</svg>
