<?xml version="1.0" encoding="UTF-8"?>
<svg xmlns="http://www.w3.org/2000/svg" xmlns:xlink="http://www.w3.org/1999/xlink" width="20pt" height="20pt" viewBox="0 0 20 20" version="1.1">
<g id="surface1">
<path style=" stroke:none;fill-rule:nonzero;fill:white;fill-opacity:1;" d="M 18.023438 0.332031 L 5.308594 0.332031 C 4.21875 0.332031 3.332031 1.21875 3.332031 2.308594 L 3.332031 4.332031 L 14.691406 4.332031 C 16.148438 4.332031 17.332031 5.519531 17.332031 6.976562 L 17.332031 11.332031 L 18.023438 11.332031 C 19.113281 11.332031 20 10.445312 20 9.355469 L 20 2.308594 C 20 1.21875 19.113281 0.332031 18.023438 0.332031 Z M 18.023438 0.332031 "/>
<path style=" stroke:none;fill-rule:nonzero;fill:white;fill-opacity:1;" d="M 14.691406 5 L 1.976562 5 C 0.886719 5 0 5.886719 0 6.976562 L 0 14.023438 C 0 15.113281 0.886719 16 1.976562 16 L 4 16 L 4 19.332031 C 4 19.472656 4.085938 19.59375 4.214844 19.644531 C 4.253906 19.660156 4.292969 19.667969 4.332031 19.667969 C 4.425781 19.667969 4.515625 19.628906 4.578125 19.558594 L 7.8125 16 L 14.691406 16 C 15.78125 16 16.667969 15.113281 16.667969 14.023438 L 16.667969 6.976562 C 16.667969 5.886719 15.78125 5 14.691406 5 Z M 4 8.339844 L 8.667969 8.339844 C 8.851562 8.339844 9 8.488281 9 8.671875 C 9 8.855469 8.851562 9.003906 8.667969 9.003906 L 4 9.003906 C 3.816406 9.003906 3.667969 8.855469 3.667969 8.671875 C 3.667969 8.488281 3.816406 8.339844 4 8.339844 Z M 13 13.003906 L 4 13.003906 C 3.816406 13.003906 3.667969 12.855469 3.667969 12.671875 C 3.667969 12.488281 3.816406 12.339844 4 12.339844 L 13 12.339844 C 13.183594 12.339844 13.332031 12.488281 13.332031 12.671875 C 13.332031 12.855469 13.183594 13.003906 13 13.003906 Z M 13 11.003906 L 4 11.003906 C 3.816406 11.003906 3.667969 10.855469 3.667969 10.671875 C 3.667969 10.488281 3.816406 10.339844 4 10.339844 L 13 10.339844 C 13.183594 10.339844 13.332031 10.488281 13.332031 10.671875 C 13.332031 10.855469 13.183594 11.003906 13 11.003906 Z M 13 11.003906 "/>
</g>
</svg>
