<?xml version="1.0" encoding="UTF-8"?>
<svg xmlns="http://www.w3.org/2000/svg" xmlns:xlink="http://www.w3.org/1999/xlink" width="20pt" height="20pt" viewBox="0 0 20 20" version="1.1">
<g id="surface1">
<path style=" stroke:none;fill-rule:nonzero;fill:white;fill-opacity:1;" d="M 18.273438 16.871094 L 16.84375 14.484375 C 16.183594 13.382812 15.832031 12.121094 15.832031 10.839844 L 15.832031 8.75 C 15.832031 6.113281 14.074219 3.882812 11.667969 3.164062 L 11.667969 1.667969 C 11.667969 0.746094 10.917969 0 10 0 C 9.082031 0 8.332031 0.746094 8.332031 1.667969 L 8.332031 3.164062 C 5.925781 3.882812 4.167969 6.113281 4.167969 8.75 L 4.167969 10.839844 C 4.167969 12.121094 3.816406 13.382812 3.15625 14.484375 L 1.726562 16.867188 C 1.648438 16.996094 1.648438 17.15625 1.722656 17.289062 C 1.796875 17.417969 1.933594 17.5 2.082031 17.5 L 17.917969 17.5 C 18.066406 17.5 18.203125 17.417969 18.277344 17.289062 C 18.351562 17.160156 18.351562 16.996094 18.273438 16.871094 Z M 18.273438 16.871094 "/>
<path style=" stroke:none;fill-rule:nonzero;fill:white;fill-opacity:1;" d="M 7.375 18.332031 C 7.84375 19.316406 8.839844 20 10 20 C 11.160156 20 12.152344 19.316406 12.625 18.332031 Z M 7.375 18.332031 "/>
</g>
</svg>
