<svg xmlns="http://www.w3.org/2000/svg" width="20pt" height="17pt" viewBox="0 0 20 17" version="1.1" fill="#8089A6" fill-opacity="1">
<g id="surface1">
<path style="fill:#8089A6;" d="M 5.488281 3.398438 C 5.488281 1.980469 6.636719 0.835938 8.054688 0.835938 C 9.46875 0.835938 10.617188 1.980469 10.617188 3.398438 C 10.617188 4.8125 9.46875 5.960938 8.054688 5.960938 C 6.636719 5.960938 5.488281 4.8125 5.488281 3.398438 Z M 9.285156 7.710938 C 9.3125 7.152344 9.503906 6.632812 9.8125 6.207031 C 9.597656 6.160156 9.371094 6.136719 9.140625 6.136719 L 6.964844 6.136719 C 6.738281 6.136719 6.511719 6.160156 6.296875 6.207031 C 6.625 6.664062 6.824219 7.21875 6.828125 7.824219 C 7.226562 7.601562 7.683594 7.476562 8.171875 7.476562 C 8.566406 7.476562 8.945312 7.5625 9.285156 7.710938 Z M 9.71875 7.9375 C 10.464844 8.40625 10.988281 9.195312 11.082031 10.113281 C 11.386719 10.253906 11.722656 10.335938 12.082031 10.335938 C 13.386719 10.335938 14.441406 9.28125 14.441406 7.976562 C 14.441406 6.671875 13.386719 5.613281 12.082031 5.613281 C 10.789062 5.613281 9.738281 6.652344 9.71875 7.9375 Z M 8.171875 12.777344 C 9.476562 12.777344 10.535156 11.71875 10.535156 10.414062 C 10.535156 9.109375 9.476562 8.050781 8.171875 8.050781 C 6.867188 8.050781 5.808594 9.109375 5.808594 10.414062 C 5.808594 11.71875 6.867188 12.777344 8.171875 12.777344 Z M 9.175781 12.9375 L 7.171875 12.9375 C 5.503906 12.9375 4.144531 14.292969 4.144531 15.960938 L 4.144531 18.414062 L 4.152344 18.453125 L 4.320312 18.503906 C 5.914062 19.003906 7.296875 19.167969 8.433594 19.167969 C 10.65625 19.167969 11.945312 18.535156 12.023438 18.492188 L 12.183594 18.414062 L 12.199219 18.414062 L 12.199219 15.960938 C 12.199219 14.292969 10.84375 12.9375 9.175781 12.9375 Z M 13.082031 10.5 L 11.09375 10.5 C 11.074219 11.292969 10.734375 12.011719 10.195312 12.527344 C 11.679688 12.96875 12.761719 14.34375 12.761719 15.964844 L 12.761719 16.722656 C 14.726562 16.648438 15.859375 16.09375 15.933594 16.054688 L 16.089844 15.976562 L 16.109375 15.976562 L 16.109375 13.523438 C 16.109375 11.855469 14.75 10.5 13.082031 10.5 Z M 13.617188 5.5625 C 14.359375 6.03125 14.882812 6.820312 14.976562 7.738281 C 15.28125 7.878906 15.617188 7.960938 15.976562 7.960938 C 17.28125 7.960938 18.339844 6.902344 18.339844 5.597656 C 18.339844 4.292969 17.28125 3.234375 15.976562 3.234375 C 14.683594 3.234375 13.636719 4.273438 13.617188 5.5625 Z M 16.976562 8.121094 L 14.988281 8.121094 C 14.96875 8.917969 14.628906 9.632812 14.089844 10.148438 C 15.574219 10.589844 16.65625 11.964844 16.65625 13.589844 L 16.65625 14.34375 C 18.621094 14.273438 19.753906 13.714844 19.828125 13.679688 L 19.984375 13.597656 L 20.003906 13.597656 L 20.003906 11.144531 C 20.003906 9.476562 18.644531 8.121094 16.976562 8.121094 Z M 4.027344 10.335938 C 4.488281 10.335938 4.917969 10.203125 5.285156 9.972656 C 5.398438 9.21875 5.804688 8.558594 6.382812 8.109375 C 6.386719 8.0625 6.390625 8.019531 6.390625 7.976562 C 6.390625 6.671875 5.332031 5.613281 4.027344 5.613281 C 2.722656 5.613281 1.664062 6.671875 1.664062 7.976562 C 1.664062 9.28125 2.722656 10.335938 4.027344 10.335938 Z M 6.148438 12.527344 C 5.613281 12.015625 5.277344 11.300781 5.25 10.507812 C 5.175781 10.503906 5.105469 10.5 5.027344 10.5 L 3.023438 10.5 C 1.355469 10.5 0 11.855469 0 13.523438 L 0 15.976562 L 0.0078125 16.011719 L 0.175781 16.066406 C 1.453125 16.464844 2.589844 16.648438 3.582031 16.707031 L 3.582031 15.964844 C 3.582031 14.34375 4.667969 12.96875 6.148438 12.527344 Z M 6.148438 12.527344 "/>
</g>
</svg>
